# xmcd
#
# Track frame offsets: 
#        300
#        17025
#        38690
#        64801
#        89455
#        109323
#        129842
#        153334
#        185992
#        204319
#
# Disc length: 2920 seconds
#
# Revision: 1
# Processed by: cddbd v1.5.2PL0 Copyright (c) Steve Scherf et al.
# Submitted via: ExactAudioCopy v1.0b1
#
DISCID=850b640a
DTITLE=Barkin' Bill Smith and Dave Specter - Bluebird Blues with Ronnie 
DTITLE=Earl
DYEAR=1991
DGENRE=Blues
TTITLE0=Things I'd Do for You
TTITLE1=Tell Me What's the Reason
TTITLE2=Bluebird Blues
TTITLE3=Wind Chill
TTITLE4=Get Me While I'm Free
TTITLE5=Buzz Me
TTITLE6=Lie to Me
TTITLE7=Railroad Station Blues
TTITLE8=Our Course Is Run
TTITLE9=Take a Walk With Me
EXTD=YEAR: 1991 ID3G: 0
EXTT0=
EXTT1=
EXTT2=
EXTT3=
EXTT4=
EXTT5=
EXTT6=
EXTT7=
EXTT8=
EXTT9=
PLAYORDER=
